<mxfile host="65bd71144e" pages="3">
    <diagram id="JC_CXEHhnV1I1dWa7hXK" name="events">
        <mxGraphModel dx="856" dy="452" grid="1" gridSize="10" guides="1" tooltips="1" connect="1" arrows="1" fold="1" page="1" pageScale="1" pageWidth="1169" pageHeight="827" math="0" shadow="0">
            <root>
                <mxCell id="82_psZuO57LgUEVSTKdJ-0"/>
                <mxCell id="82_psZuO57LgUEVSTKdJ-1" parent="82_psZuO57LgUEVSTKdJ-0"/>
                <mxCell id="vMA6ywEBPv3zlKHuz7q7-0" value="" style="rounded=0;whiteSpace=wrap;html=1;" parent="82_psZuO57LgUEVSTKdJ-1" vertex="1">
                    <mxGeometry x="60" y="56" width="990" height="610" as="geometry"/>
                </mxCell>
                <mxCell id="FgYEBliw_DbdhyNJTHoB-2" value="" style="rounded=0;whiteSpace=wrap;html=1;" parent="82_psZuO57LgUEVSTKdJ-1" vertex="1">
                    <mxGeometry x="300" y="81" width="120" height="560" as="geometry"/>
                </mxCell>
                <mxCell id="FgYEBliw_DbdhyNJTHoB-1" value="login" style="ellipse;whiteSpace=wrap;html=1;aspect=fixed;" parent="82_psZuO57LgUEVSTKdJ-1" vertex="1">
                    <mxGeometry x="320" y="91" width="80" height="80" as="geometry"/>
                </mxCell>
                <mxCell id="FgYEBliw_DbdhyNJTHoB-3" value="Actor" style="shape=umlActor;verticalLabelPosition=bottom;verticalAlign=top;html=1;" parent="82_psZuO57LgUEVSTKdJ-1" vertex="1">
                    <mxGeometry x="60" y="301" width="30" height="60" as="geometry"/>
                </mxCell>
                <mxCell id="FgYEBliw_DbdhyNJTHoB-4" value="send message" style="ellipse;whiteSpace=wrap;html=1;aspect=fixed;" parent="82_psZuO57LgUEVSTKdJ-1" vertex="1">
                    <mxGeometry x="320" y="271" width="80" height="80" as="geometry"/>
                </mxCell>
                <mxCell id="FgYEBliw_DbdhyNJTHoB-5" value="find user by name" style="ellipse;whiteSpace=wrap;html=1;aspect=fixed;" parent="82_psZuO57LgUEVSTKdJ-1" vertex="1">
                    <mxGeometry x="320" y="180" width="80" height="80" as="geometry"/>
                </mxCell>
                <mxCell id="FgYEBliw_DbdhyNJTHoB-6" value="find unread messages" style="ellipse;whiteSpace=wrap;html=1;aspect=fixed;" parent="82_psZuO57LgUEVSTKdJ-1" vertex="1">
                    <mxGeometry x="320" y="460" width="80" height="80" as="geometry"/>
                </mxCell>
                <mxCell id="yqyYAsCOq2Nfl9z5VKG4-0" value="change status" style="ellipse;whiteSpace=wrap;html=1;aspect=fixed;" parent="82_psZuO57LgUEVSTKdJ-1" vertex="1">
                    <mxGeometry x="320" y="556" width="80" height="80" as="geometry"/>
                </mxCell>
                <mxCell id="yqyYAsCOq2Nfl9z5VKG4-9" value="login" style="html=1;verticalAlign=bottom;startArrow=oval;startFill=1;endArrow=block;startSize=8;rounded=0;exitX=1;exitY=0.3333333333333333;exitDx=0;exitDy=0;exitPerimeter=0;" parent="82_psZuO57LgUEVSTKdJ-1" source="FgYEBliw_DbdhyNJTHoB-3" target="FgYEBliw_DbdhyNJTHoB-1" edge="1">
                    <mxGeometry width="60" relative="1" as="geometry">
                        <mxPoint x="250" y="311" as="sourcePoint"/>
                        <mxPoint x="310" y="311" as="targetPoint"/>
                    </mxGeometry>
                </mxCell>
                <mxCell id="yqyYAsCOq2Nfl9z5VKG4-17" value="find users" style="html=1;verticalAlign=bottom;startArrow=oval;startFill=1;endArrow=block;startSize=8;rounded=0;entryX=0;entryY=0.5;entryDx=0;entryDy=0;exitX=1;exitY=0.3333333333333333;exitDx=0;exitDy=0;exitPerimeter=0;" parent="82_psZuO57LgUEVSTKdJ-1" source="FgYEBliw_DbdhyNJTHoB-3" target="FgYEBliw_DbdhyNJTHoB-5" edge="1">
                    <mxGeometry width="60" relative="1" as="geometry">
                        <mxPoint x="100" y="301" as="sourcePoint"/>
                        <mxPoint x="170" y="301.5" as="targetPoint"/>
                    </mxGeometry>
                </mxCell>
                <mxCell id="yqyYAsCOq2Nfl9z5VKG4-18" value="update status" style="html=1;verticalAlign=bottom;startArrow=oval;startFill=1;endArrow=block;startSize=8;rounded=0;entryX=0.092;entryY=0.375;entryDx=0;entryDy=0;entryPerimeter=0;exitX=1;exitY=0.3333333333333333;exitDx=0;exitDy=0;exitPerimeter=0;" parent="82_psZuO57LgUEVSTKdJ-1" source="FgYEBliw_DbdhyNJTHoB-3" target="yqyYAsCOq2Nfl9z5VKG4-0" edge="1">
                    <mxGeometry width="60" relative="1" as="geometry">
                        <mxPoint x="250" y="321" as="sourcePoint"/>
                        <mxPoint x="220" y="441" as="targetPoint"/>
                    </mxGeometry>
                </mxCell>
                <mxCell id="yqyYAsCOq2Nfl9z5VKG4-19" value="send a message" style="html=1;verticalAlign=bottom;startArrow=oval;startFill=1;endArrow=block;startSize=8;rounded=0;entryX=0;entryY=0.5;entryDx=0;entryDy=0;exitX=1;exitY=0.3333333333333333;exitDx=0;exitDy=0;exitPerimeter=0;" parent="82_psZuO57LgUEVSTKdJ-1" source="FgYEBliw_DbdhyNJTHoB-3" target="FgYEBliw_DbdhyNJTHoB-4" edge="1">
                    <mxGeometry width="60" relative="1" as="geometry">
                        <mxPoint x="250" y="310.5" as="sourcePoint"/>
                        <mxPoint x="310" y="310.5" as="targetPoint"/>
                    </mxGeometry>
                </mxCell>
                <mxCell id="yqyYAsCOq2Nfl9z5VKG4-21" value="authentication" style="verticalAlign=top;align=left;spacingTop=8;spacingLeft=2;spacingRight=12;shape=cube;size=10;direction=south;fontStyle=4;html=1;" parent="82_psZuO57LgUEVSTKdJ-1" vertex="1">
                    <mxGeometry x="890" y="101.5" width="90" height="59" as="geometry"/>
                </mxCell>
                <mxCell id="yqyYAsCOq2Nfl9z5VKG4-22" value="dispatch" style="html=1;verticalAlign=bottom;startArrow=oval;startFill=1;endArrow=block;startSize=8;rounded=0;exitX=0.958;exitY=0.2;exitDx=0;exitDy=0;exitPerimeter=0;entryX=0;entryY=0;entryDx=40;entryDy=100;entryPerimeter=0;" parent="82_psZuO57LgUEVSTKdJ-1" source="FgYEBliw_DbdhyNJTHoB-1" target="yqyYAsCOq2Nfl9z5VKG4-21" edge="1">
                    <mxGeometry width="60" relative="1" as="geometry">
                        <mxPoint x="530" y="301" as="sourcePoint"/>
                        <mxPoint x="590" y="301" as="targetPoint"/>
                    </mxGeometry>
                </mxCell>
                <mxCell id="yqyYAsCOq2Nfl9z5VKG4-25" value="meesage_service" style="verticalAlign=top;align=left;spacingTop=8;spacingLeft=2;spacingRight=12;shape=cube;size=10;direction=south;fontStyle=4;html=1;" parent="82_psZuO57LgUEVSTKdJ-1" vertex="1">
                    <mxGeometry x="910" y="430" width="110" height="50" as="geometry"/>
                </mxCell>
                <mxCell id="yqyYAsCOq2Nfl9z5VKG4-26" value="dispatch" style="html=1;verticalAlign=bottom;startArrow=oval;startFill=1;endArrow=block;startSize=8;rounded=0;exitX=1;exitY=0.5;exitDx=0;exitDy=0;entryX=0.322;entryY=0.982;entryDx=0;entryDy=0;entryPerimeter=0;" parent="82_psZuO57LgUEVSTKdJ-1" source="FgYEBliw_DbdhyNJTHoB-4" target="yqyYAsCOq2Nfl9z5VKG4-38" edge="1">
                    <mxGeometry width="60" relative="1" as="geometry">
                        <mxPoint x="180" y="421" as="sourcePoint"/>
                        <mxPoint x="670" y="471" as="targetPoint"/>
                    </mxGeometry>
                </mxCell>
                <mxCell id="yqyYAsCOq2Nfl9z5VKG4-31" value="dispatch" style="html=1;verticalAlign=bottom;startArrow=oval;startFill=1;endArrow=block;startSize=8;rounded=0;exitX=1;exitY=0.5;exitDx=0;exitDy=0;" parent="82_psZuO57LgUEVSTKdJ-1" source="FgYEBliw_DbdhyNJTHoB-6" target="yqyYAsCOq2Nfl9z5VKG4-25" edge="1">
                    <mxGeometry width="60" relative="1" as="geometry">
                        <mxPoint x="470" y="391" as="sourcePoint"/>
                        <mxPoint x="1040" y="391" as="targetPoint"/>
                    </mxGeometry>
                </mxCell>
                <mxCell id="yqyYAsCOq2Nfl9z5VKG4-35" value="dispatch" style="html=1;verticalAlign=bottom;startArrow=oval;startFill=1;endArrow=block;startSize=8;rounded=0;entryX=0.124;entryY=0.249;entryDx=0;entryDy=0;entryPerimeter=0;exitX=1;exitY=0.3333333333333333;exitDx=0;exitDy=0;exitPerimeter=0;" parent="82_psZuO57LgUEVSTKdJ-1" source="FgYEBliw_DbdhyNJTHoB-3" target="yqyYAsCOq2Nfl9z5VKG4-34" edge="1">
                    <mxGeometry width="60" relative="1" as="geometry">
                        <mxPoint x="140" y="321" as="sourcePoint"/>
                        <mxPoint x="160" y="521" as="targetPoint"/>
                    </mxGeometry>
                </mxCell>
                <mxCell id="yqyYAsCOq2Nfl9z5VKG4-38" value="room_service" style="verticalAlign=top;align=left;spacingTop=8;spacingLeft=2;spacingRight=12;shape=cube;size=10;direction=south;fontStyle=4;html=1;" parent="82_psZuO57LgUEVSTKdJ-1" vertex="1">
                    <mxGeometry x="690" y="351" width="110" height="60" as="geometry"/>
                </mxCell>
                <mxCell id="yqyYAsCOq2Nfl9z5VKG4-39" value="dispatch" style="html=1;verticalAlign=bottom;startArrow=oval;startFill=1;endArrow=block;startSize=8;rounded=0;exitX=1.031;exitY=0.613;exitDx=0;exitDy=0;exitPerimeter=0;" parent="82_psZuO57LgUEVSTKdJ-1" source="yqyYAsCOq2Nfl9z5VKG4-34" target="yqyYAsCOq2Nfl9z5VKG4-38" edge="1">
                    <mxGeometry width="60" relative="1" as="geometry">
                        <mxPoint x="590" y="541" as="sourcePoint"/>
                        <mxPoint x="670" y="481" as="targetPoint"/>
                    </mxGeometry>
                </mxCell>
                <mxCell id="yqyYAsCOq2Nfl9z5VKG4-41" value="dispatch" style="html=1;verticalAlign=bottom;startArrow=oval;startFill=1;endArrow=block;startSize=8;rounded=0;entryX=0.069;entryY=0.579;entryDx=0;entryDy=0;entryPerimeter=0;" parent="82_psZuO57LgUEVSTKdJ-1" target="yqyYAsCOq2Nfl9z5VKG4-25" edge="1">
                    <mxGeometry width="60" relative="1" as="geometry">
                        <mxPoint x="800" y="390" as="sourcePoint"/>
                        <mxPoint x="750" y="541" as="targetPoint"/>
                    </mxGeometry>
                </mxCell>
                <mxCell id="yqyYAsCOq2Nfl9z5VKG4-42" value="dispatch" style="html=1;verticalAlign=bottom;startArrow=oval;startFill=1;endArrow=block;startSize=8;rounded=0;entryX=0;entryY=0;entryDx=50;entryDy=60;entryPerimeter=0;" parent="82_psZuO57LgUEVSTKdJ-1" source="yqyYAsCOq2Nfl9z5VKG4-0" target="yqyYAsCOq2Nfl9z5VKG4-25" edge="1">
                    <mxGeometry width="60" relative="1" as="geometry">
                        <mxPoint x="680" y="641" as="sourcePoint"/>
                        <mxPoint x="1092.65" y="423.03" as="targetPoint"/>
                        <Array as="points"/>
                    </mxGeometry>
                </mxCell>
                <mxCell id="yqyYAsCOq2Nfl9z5VKG4-43" value="api_gateway" style="text;html=1;strokeColor=none;fillColor=none;align=center;verticalAlign=middle;whiteSpace=wrap;rounded=0;" parent="82_psZuO57LgUEVSTKdJ-1" vertex="1">
                    <mxGeometry x="300" y="50" width="120" height="30" as="geometry"/>
                </mxCell>
                <mxCell id="lJ767oEHk_iyGiI3RNgG-0" value="image_&lt;br&gt;service" style="verticalAlign=top;align=left;spacingTop=8;spacingLeft=2;spacingRight=12;shape=cube;size=10;direction=south;fontStyle=4;html=1;" parent="82_psZuO57LgUEVSTKdJ-1" vertex="1">
                    <mxGeometry x="890" y="171" width="90" height="60" as="geometry"/>
                </mxCell>
                <mxCell id="lJ767oEHk_iyGiI3RNgG-1" value="dispatch" style="html=1;verticalAlign=bottom;startArrow=oval;startFill=1;endArrow=block;startSize=8;rounded=0;exitX=1;exitY=0.5;exitDx=0;exitDy=0;" parent="82_psZuO57LgUEVSTKdJ-1" source="FgYEBliw_DbdhyNJTHoB-1" target="lJ767oEHk_iyGiI3RNgG-0" edge="1">
                    <mxGeometry width="60" relative="1" as="geometry">
                        <mxPoint x="440" y="141" as="sourcePoint"/>
                        <mxPoint x="490" y="191" as="targetPoint"/>
                    </mxGeometry>
                </mxCell>
                <mxCell id="MshjZz6TUrqw4jigZDQg-0" value="profile" style="verticalAlign=top;align=left;spacingTop=8;spacingLeft=2;spacingRight=12;shape=cube;size=10;direction=south;fontStyle=4;html=1;" parent="82_psZuO57LgUEVSTKdJ-1" vertex="1">
                    <mxGeometry x="895" y="250" width="80" height="60" as="geometry"/>
                </mxCell>
                <mxCell id="MshjZz6TUrqw4jigZDQg-1" value="" style="html=1;verticalAlign=bottom;startArrow=oval;startFill=1;endArrow=none;startSize=8;rounded=0;exitX=1;exitY=0.5;exitDx=0;exitDy=0;" parent="82_psZuO57LgUEVSTKdJ-1" source="FgYEBliw_DbdhyNJTHoB-5" target="MshjZz6TUrqw4jigZDQg-0" edge="1">
                    <mxGeometry width="60" relative="1" as="geometry">
                        <mxPoint x="400" y="311" as="sourcePoint"/>
                        <mxPoint x="945" y="151" as="targetPoint"/>
                        <Array as="points">
                            <mxPoint x="580" y="240"/>
                        </Array>
                    </mxGeometry>
                </mxCell>
                <mxCell id="yqyYAsCOq2Nfl9z5VKG4-34" value="find rooms with unread messages" style="ellipse;whiteSpace=wrap;html=1;aspect=fixed;" parent="82_psZuO57LgUEVSTKdJ-1" vertex="1">
                    <mxGeometry x="322.5" y="370" width="75" height="75" as="geometry"/>
                </mxCell>
                <mxCell id="MshjZz6TUrqw4jigZDQg-3" value="dispatch" style="html=1;verticalAlign=bottom;startArrow=oval;startFill=1;endArrow=block;startSize=8;exitX=1;exitY=0.3333333333333333;exitDx=0;exitDy=0;exitPerimeter=0;" parent="82_psZuO57LgUEVSTKdJ-1" source="FgYEBliw_DbdhyNJTHoB-3" target="FgYEBliw_DbdhyNJTHoB-6" edge="1">
                    <mxGeometry width="60" relative="1" as="geometry">
                        <mxPoint x="520" y="580" as="sourcePoint"/>
                        <mxPoint x="580" y="580" as="targetPoint"/>
                    </mxGeometry>
                </mxCell>
                <mxCell id="vMA6ywEBPv3zlKHuz7q7-1" value="config_server" style="verticalAlign=top;align=left;spacingTop=8;spacingLeft=2;spacingRight=12;shape=cube;size=10;direction=south;fontStyle=4;html=1;" parent="82_psZuO57LgUEVSTKdJ-1" vertex="1">
                    <mxGeometry x="430" y="680" width="120" height="60" as="geometry"/>
                </mxCell>
                <mxCell id="vMA6ywEBPv3zlKHuz7q7-2" value="eureka_server" style="verticalAlign=top;align=left;spacingTop=8;spacingLeft=2;spacingRight=12;shape=cube;size=10;direction=south;fontStyle=4;html=1;" parent="82_psZuO57LgUEVSTKdJ-1" vertex="1">
                    <mxGeometry x="570" y="680" width="130" height="60" as="geometry"/>
                </mxCell>
            </root>
        </mxGraphModel>
    </diagram>
    <diagram id="GpCruY_vJxTROMFV_0nX" name="json_payloads">
        <mxGraphModel dx="856" dy="452" grid="1" gridSize="10" guides="1" tooltips="1" connect="1" arrows="1" fold="1" page="1" pageScale="1" pageWidth="583" pageHeight="827" math="0" shadow="0">
            <root>
                <mxCell id="RCEpxNJAKZdSeOFIJ_JX-0"/>
                <mxCell id="RCEpxNJAKZdSeOFIJ_JX-1" parent="RCEpxNJAKZdSeOFIJ_JX-0"/>
                <mxCell id="deFzxHGtDCjkrPCfKpyV-1" value="login/signup" style="ellipse;whiteSpace=wrap;html=1;aspect=fixed;" parent="RCEpxNJAKZdSeOFIJ_JX-1" vertex="1">
                    <mxGeometry x="202" y="80" width="80" height="80" as="geometry"/>
                </mxCell>
                <mxCell id="deFzxHGtDCjkrPCfKpyV-2" value="send message" style="ellipse;whiteSpace=wrap;html=1;aspect=fixed;" parent="RCEpxNJAKZdSeOFIJ_JX-1" vertex="1">
                    <mxGeometry x="202" y="170" width="80" height="80" as="geometry"/>
                </mxCell>
                <mxCell id="deFzxHGtDCjkrPCfKpyV-3" value="find user by name" style="ellipse;whiteSpace=wrap;html=1;aspect=fixed;" parent="RCEpxNJAKZdSeOFIJ_JX-1" vertex="1">
                    <mxGeometry x="202" y="260" width="80" height="80" as="geometry"/>
                </mxCell>
                <mxCell id="deFzxHGtDCjkrPCfKpyV-4" value="find unread messages" style="ellipse;whiteSpace=wrap;html=1;aspect=fixed;" parent="RCEpxNJAKZdSeOFIJ_JX-1" vertex="1">
                    <mxGeometry x="202" y="350" width="80" height="80" as="geometry"/>
                </mxCell>
                <mxCell id="deFzxHGtDCjkrPCfKpyV-5" value="change status" style="ellipse;whiteSpace=wrap;html=1;aspect=fixed;" parent="RCEpxNJAKZdSeOFIJ_JX-1" vertex="1">
                    <mxGeometry x="202" y="545" width="80" height="80" as="geometry"/>
                </mxCell>
                <mxCell id="deFzxHGtDCjkrPCfKpyV-6" value="find rooms with unread messages" style="ellipse;whiteSpace=wrap;html=1;aspect=fixed;" parent="RCEpxNJAKZdSeOFIJ_JX-1" vertex="1">
                    <mxGeometry x="202" y="450" width="75" height="75" as="geometry"/>
                </mxCell>
                <mxCell id="deFzxHGtDCjkrPCfKpyV-10" value="{&lt;br&gt;img_url,&lt;br&gt;name,&lt;br&gt;email&lt;br&gt;}&lt;div&gt;&lt;/div&gt;" style="rounded=0;whiteSpace=wrap;html=1;align=left;" parent="RCEpxNJAKZdSeOFIJ_JX-1" vertex="1">
                    <mxGeometry x="287" y="270" width="60" height="80" as="geometry"/>
                </mxCell>
                <mxCell id="deFzxHGtDCjkrPCfKpyV-11" value="{&lt;br&gt;roomUuid,&lt;br&gt;roomName,&lt;br&gt;lastMessage,&lt;br&gt;timestamp&lt;br&gt;}" style="rounded=0;whiteSpace=wrap;html=1;align=left;" parent="RCEpxNJAKZdSeOFIJ_JX-1" vertex="1">
                    <mxGeometry x="287" y="445" width="80" height="100" as="geometry"/>
                </mxCell>
                <mxCell id="deFzxHGtDCjkrPCfKpyV-12" value="{&lt;br&gt;content,&lt;br&gt;timestamp,&lt;br&gt;sentBy,&lt;br&gt;}" style="rounded=0;whiteSpace=wrap;html=1;align=left;" parent="RCEpxNJAKZdSeOFIJ_JX-1" vertex="1">
                    <mxGeometry x="352" y="357.5" width="70" height="80" as="geometry"/>
                </mxCell>
                <mxCell id="deFzxHGtDCjkrPCfKpyV-16" value="{&lt;br&gt;content,&lt;br&gt;sentBy,&lt;br&gt;roomUuid&lt;br&gt;}" style="rounded=0;whiteSpace=wrap;html=1;align=left;" parent="RCEpxNJAKZdSeOFIJ_JX-1" vertex="1">
                    <mxGeometry x="287" y="170" width="70" height="90" as="geometry"/>
                </mxCell>
                <mxCell id="deFzxHGtDCjkrPCfKpyV-17" value="{&lt;br&gt;email,&lt;br&gt;password,&lt;br&gt;name,&lt;br&gt;image&lt;br&gt;&lt;div&gt;&lt;span&gt;}&lt;/span&gt;&lt;/div&gt;" style="rounded=0;whiteSpace=wrap;html=1;align=left;" parent="RCEpxNJAKZdSeOFIJ_JX-1" vertex="1">
                    <mxGeometry x="292" y="60" width="60" height="100" as="geometry"/>
                </mxCell>
                <mxCell id="deFzxHGtDCjkrPCfKpyV-18" value="{&lt;br&gt;messageUUid,&lt;br&gt;status,&lt;br&gt;}" style="rounded=0;whiteSpace=wrap;html=1;align=left;" parent="RCEpxNJAKZdSeOFIJ_JX-1" vertex="1">
                    <mxGeometry x="292" y="565" width="90" height="85" as="geometry"/>
                </mxCell>
                <mxCell id="15ecm_LuZJX2Lwn8f2XC-1" value="roomUuid" style="html=1;" parent="RCEpxNJAKZdSeOFIJ_JX-1" vertex="1">
                    <mxGeometry x="292" y="380" width="58" height="20" as="geometry"/>
                </mxCell>
            </root>
        </mxGraphModel>
    </diagram>
    <diagram id="e4R5Dal3kUMVuKXIzgME" name="entities">
        <mxGraphModel dx="1070" dy="565" grid="1" gridSize="10" guides="1" tooltips="1" connect="1" arrows="1" fold="1" page="1" pageScale="1" pageWidth="827" pageHeight="583" math="0" shadow="0">
            <root>
                <mxCell id="f1Qb1_tnKNFnAcXF_MoP-0"/>
                <mxCell id="f1Qb1_tnKNFnAcXF_MoP-1" parent="f1Qb1_tnKNFnAcXF_MoP-0"/>
                <mxCell id="f1Qb1_tnKNFnAcXF_MoP-2" value="usr_tbl" style="shape=table;startSize=30;container=1;collapsible=1;childLayout=tableLayout;fixedRows=1;rowLines=0;fontStyle=1;align=center;resizeLast=1;" parent="f1Qb1_tnKNFnAcXF_MoP-1" vertex="1">
                    <mxGeometry x="60" y="240" width="180" height="150" as="geometry"/>
                </mxCell>
                <mxCell id="f1Qb1_tnKNFnAcXF_MoP-6" value="" style="shape=tableRow;horizontal=0;startSize=0;swimlaneHead=0;swimlaneBody=0;fillColor=none;collapsible=0;dropTarget=0;points=[[0,0.5],[1,0.5]];portConstraint=eastwest;top=0;left=0;right=0;bottom=0;" parent="f1Qb1_tnKNFnAcXF_MoP-2" vertex="1">
                    <mxGeometry y="30" width="180" height="30" as="geometry"/>
                </mxCell>
                <mxCell id="f1Qb1_tnKNFnAcXF_MoP-7" value="" style="shape=partialRectangle;connectable=0;fillColor=none;top=0;left=0;bottom=0;right=0;editable=1;overflow=hidden;" parent="f1Qb1_tnKNFnAcXF_MoP-6" vertex="1">
                    <mxGeometry width="30" height="30" as="geometry">
                        <mxRectangle width="30" height="30" as="alternateBounds"/>
                    </mxGeometry>
                </mxCell>
                <mxCell id="f1Qb1_tnKNFnAcXF_MoP-8" value="email" style="shape=partialRectangle;connectable=0;fillColor=none;top=0;left=0;bottom=0;right=0;align=left;spacingLeft=6;overflow=hidden;" parent="f1Qb1_tnKNFnAcXF_MoP-6" vertex="1">
                    <mxGeometry x="30" width="150" height="30" as="geometry">
                        <mxRectangle width="150" height="30" as="alternateBounds"/>
                    </mxGeometry>
                </mxCell>
                <mxCell id="f1Qb1_tnKNFnAcXF_MoP-9" value="" style="shape=tableRow;horizontal=0;startSize=0;swimlaneHead=0;swimlaneBody=0;fillColor=none;collapsible=0;dropTarget=0;points=[[0,0.5],[1,0.5]];portConstraint=eastwest;top=0;left=0;right=0;bottom=0;" parent="f1Qb1_tnKNFnAcXF_MoP-2" vertex="1">
                    <mxGeometry y="60" width="180" height="30" as="geometry"/>
                </mxCell>
                <mxCell id="f1Qb1_tnKNFnAcXF_MoP-10" value="" style="shape=partialRectangle;connectable=0;fillColor=none;top=0;left=0;bottom=0;right=0;editable=1;overflow=hidden;" parent="f1Qb1_tnKNFnAcXF_MoP-9" vertex="1">
                    <mxGeometry width="30" height="30" as="geometry">
                        <mxRectangle width="30" height="30" as="alternateBounds"/>
                    </mxGeometry>
                </mxCell>
                <mxCell id="f1Qb1_tnKNFnAcXF_MoP-11" value="password" style="shape=partialRectangle;connectable=0;fillColor=none;top=0;left=0;bottom=0;right=0;align=left;spacingLeft=6;overflow=hidden;" parent="f1Qb1_tnKNFnAcXF_MoP-9" vertex="1">
                    <mxGeometry x="30" width="150" height="30" as="geometry">
                        <mxRectangle width="150" height="30" as="alternateBounds"/>
                    </mxGeometry>
                </mxCell>
                <mxCell id="f1Qb1_tnKNFnAcXF_MoP-12" value="" style="shape=tableRow;horizontal=0;startSize=0;swimlaneHead=0;swimlaneBody=0;fillColor=none;collapsible=0;dropTarget=0;points=[[0,0.5],[1,0.5]];portConstraint=eastwest;top=0;left=0;right=0;bottom=0;" parent="f1Qb1_tnKNFnAcXF_MoP-2" vertex="1">
                    <mxGeometry y="90" width="180" height="30" as="geometry"/>
                </mxCell>
                <mxCell id="f1Qb1_tnKNFnAcXF_MoP-13" value="" style="shape=partialRectangle;connectable=0;fillColor=none;top=0;left=0;bottom=0;right=0;editable=1;overflow=hidden;" parent="f1Qb1_tnKNFnAcXF_MoP-12" vertex="1">
                    <mxGeometry width="30" height="30" as="geometry">
                        <mxRectangle width="30" height="30" as="alternateBounds"/>
                    </mxGeometry>
                </mxCell>
                <mxCell id="f1Qb1_tnKNFnAcXF_MoP-14" value="name" style="shape=partialRectangle;connectable=0;fillColor=none;top=0;left=0;bottom=0;right=0;align=left;spacingLeft=6;overflow=hidden;" parent="f1Qb1_tnKNFnAcXF_MoP-12" vertex="1">
                    <mxGeometry x="30" width="150" height="30" as="geometry">
                        <mxRectangle width="150" height="30" as="alternateBounds"/>
                    </mxGeometry>
                </mxCell>
                <mxCell id="wbmbLgE11EIsQov5PoQD-0" value="" style="shape=tableRow;horizontal=0;startSize=0;swimlaneHead=0;swimlaneBody=0;fillColor=none;collapsible=0;dropTarget=0;points=[[0,0.5],[1,0.5]];portConstraint=eastwest;top=0;left=0;right=0;bottom=0;" parent="f1Qb1_tnKNFnAcXF_MoP-2" vertex="1">
                    <mxGeometry y="120" width="180" height="30" as="geometry"/>
                </mxCell>
                <mxCell id="wbmbLgE11EIsQov5PoQD-1" value="" style="shape=partialRectangle;connectable=0;fillColor=none;top=0;left=0;bottom=0;right=0;editable=1;overflow=hidden;" parent="wbmbLgE11EIsQov5PoQD-0" vertex="1">
                    <mxGeometry width="30" height="30" as="geometry">
                        <mxRectangle width="30" height="30" as="alternateBounds"/>
                    </mxGeometry>
                </mxCell>
                <mxCell id="wbmbLgE11EIsQov5PoQD-2" value="img_url" style="shape=partialRectangle;connectable=0;fillColor=none;top=0;left=0;bottom=0;right=0;align=left;spacingLeft=6;overflow=hidden;" parent="wbmbLgE11EIsQov5PoQD-0" vertex="1">
                    <mxGeometry x="30" width="150" height="30" as="geometry">
                        <mxRectangle width="150" height="30" as="alternateBounds"/>
                    </mxGeometry>
                </mxCell>
                <mxCell id="f1Qb1_tnKNFnAcXF_MoP-15" value="base_entity" style="shape=table;startSize=30;container=1;collapsible=1;childLayout=tableLayout;fixedRows=1;rowLines=0;fontStyle=1;align=center;resizeLast=1;" parent="f1Qb1_tnKNFnAcXF_MoP-1" vertex="1">
                    <mxGeometry x="294" width="180" height="150" as="geometry"/>
                </mxCell>
                <mxCell id="f1Qb1_tnKNFnAcXF_MoP-16" value="" style="shape=tableRow;horizontal=0;startSize=0;swimlaneHead=0;swimlaneBody=0;fillColor=none;collapsible=0;dropTarget=0;points=[[0,0.5],[1,0.5]];portConstraint=eastwest;top=0;left=0;right=0;bottom=1;" parent="f1Qb1_tnKNFnAcXF_MoP-15" vertex="1">
                    <mxGeometry y="30" width="180" height="30" as="geometry"/>
                </mxCell>
                <mxCell id="f1Qb1_tnKNFnAcXF_MoP-17" value="PK" style="shape=partialRectangle;connectable=0;fillColor=none;top=0;left=0;bottom=0;right=0;fontStyle=1;overflow=hidden;" parent="f1Qb1_tnKNFnAcXF_MoP-16" vertex="1">
                    <mxGeometry width="30" height="30" as="geometry">
                        <mxRectangle width="30" height="30" as="alternateBounds"/>
                    </mxGeometry>
                </mxCell>
                <mxCell id="f1Qb1_tnKNFnAcXF_MoP-18" value="id" style="shape=partialRectangle;connectable=0;fillColor=none;top=0;left=0;bottom=0;right=0;align=left;spacingLeft=6;fontStyle=5;overflow=hidden;" parent="f1Qb1_tnKNFnAcXF_MoP-16" vertex="1">
                    <mxGeometry x="30" width="150" height="30" as="geometry">
                        <mxRectangle width="150" height="30" as="alternateBounds"/>
                    </mxGeometry>
                </mxCell>
                <mxCell id="f1Qb1_tnKNFnAcXF_MoP-19" value="" style="shape=tableRow;horizontal=0;startSize=0;swimlaneHead=0;swimlaneBody=0;fillColor=none;collapsible=0;dropTarget=0;points=[[0,0.5],[1,0.5]];portConstraint=eastwest;top=0;left=0;right=0;bottom=0;" parent="f1Qb1_tnKNFnAcXF_MoP-15" vertex="1">
                    <mxGeometry y="60" width="180" height="30" as="geometry"/>
                </mxCell>
                <mxCell id="f1Qb1_tnKNFnAcXF_MoP-20" value="" style="shape=partialRectangle;connectable=0;fillColor=none;top=0;left=0;bottom=0;right=0;editable=1;overflow=hidden;" parent="f1Qb1_tnKNFnAcXF_MoP-19" vertex="1">
                    <mxGeometry width="30" height="30" as="geometry">
                        <mxRectangle width="30" height="30" as="alternateBounds"/>
                    </mxGeometry>
                </mxCell>
                <mxCell id="f1Qb1_tnKNFnAcXF_MoP-21" value="uuid" style="shape=partialRectangle;connectable=0;fillColor=none;top=0;left=0;bottom=0;right=0;align=left;spacingLeft=6;overflow=hidden;" parent="f1Qb1_tnKNFnAcXF_MoP-19" vertex="1">
                    <mxGeometry x="30" width="150" height="30" as="geometry">
                        <mxRectangle width="150" height="30" as="alternateBounds"/>
                    </mxGeometry>
                </mxCell>
                <mxCell id="f1Qb1_tnKNFnAcXF_MoP-22" value="" style="shape=tableRow;horizontal=0;startSize=0;swimlaneHead=0;swimlaneBody=0;fillColor=none;collapsible=0;dropTarget=0;points=[[0,0.5],[1,0.5]];portConstraint=eastwest;top=0;left=0;right=0;bottom=0;" parent="f1Qb1_tnKNFnAcXF_MoP-15" vertex="1">
                    <mxGeometry y="90" width="180" height="30" as="geometry"/>
                </mxCell>
                <mxCell id="f1Qb1_tnKNFnAcXF_MoP-23" value="" style="shape=partialRectangle;connectable=0;fillColor=none;top=0;left=0;bottom=0;right=0;editable=1;overflow=hidden;" parent="f1Qb1_tnKNFnAcXF_MoP-22" vertex="1">
                    <mxGeometry width="30" height="30" as="geometry">
                        <mxRectangle width="30" height="30" as="alternateBounds"/>
                    </mxGeometry>
                </mxCell>
                <mxCell id="f1Qb1_tnKNFnAcXF_MoP-24" value="createdAt" style="shape=partialRectangle;connectable=0;fillColor=none;top=0;left=0;bottom=0;right=0;align=left;spacingLeft=6;overflow=hidden;" parent="f1Qb1_tnKNFnAcXF_MoP-22" vertex="1">
                    <mxGeometry x="30" width="150" height="30" as="geometry">
                        <mxRectangle width="150" height="30" as="alternateBounds"/>
                    </mxGeometry>
                </mxCell>
                <mxCell id="f1Qb1_tnKNFnAcXF_MoP-25" value="" style="shape=tableRow;horizontal=0;startSize=0;swimlaneHead=0;swimlaneBody=0;fillColor=none;collapsible=0;dropTarget=0;points=[[0,0.5],[1,0.5]];portConstraint=eastwest;top=0;left=0;right=0;bottom=0;" parent="f1Qb1_tnKNFnAcXF_MoP-15" vertex="1">
                    <mxGeometry y="120" width="180" height="30" as="geometry"/>
                </mxCell>
                <mxCell id="f1Qb1_tnKNFnAcXF_MoP-26" value="" style="shape=partialRectangle;connectable=0;fillColor=none;top=0;left=0;bottom=0;right=0;editable=1;overflow=hidden;" parent="f1Qb1_tnKNFnAcXF_MoP-25" vertex="1">
                    <mxGeometry width="30" height="30" as="geometry">
                        <mxRectangle width="30" height="30" as="alternateBounds"/>
                    </mxGeometry>
                </mxCell>
                <mxCell id="f1Qb1_tnKNFnAcXF_MoP-27" value="updatedAt" style="shape=partialRectangle;connectable=0;fillColor=none;top=0;left=0;bottom=0;right=0;align=left;spacingLeft=6;overflow=hidden;" parent="f1Qb1_tnKNFnAcXF_MoP-25" vertex="1">
                    <mxGeometry x="30" width="150" height="30" as="geometry">
                        <mxRectangle width="150" height="30" as="alternateBounds"/>
                    </mxGeometry>
                </mxCell>
                <mxCell id="f1Qb1_tnKNFnAcXF_MoP-28" value="" style="endArrow=none;html=1;rounded=0;entryX=0.5;entryY=1;entryDx=0;entryDy=0;exitX=0.5;exitY=0;exitDx=0;exitDy=0;" parent="f1Qb1_tnKNFnAcXF_MoP-1" source="f1Qb1_tnKNFnAcXF_MoP-2" target="f1Qb1_tnKNFnAcXF_MoP-15" edge="1">
                    <mxGeometry relative="1" as="geometry">
                        <mxPoint x="380" y="240" as="sourcePoint"/>
                        <mxPoint x="540" y="240" as="targetPoint"/>
                        <Array as="points"/>
                    </mxGeometry>
                </mxCell>
                <mxCell id="oKClUMGqIlvzCe3DZ8xL-0" value="message_tbl" style="shape=table;startSize=30;container=1;collapsible=1;childLayout=tableLayout;fixedRows=1;rowLines=0;fontStyle=1;align=center;resizeLast=1;" parent="f1Qb1_tnKNFnAcXF_MoP-1" vertex="1">
                    <mxGeometry x="280" y="240" width="200" height="160" as="geometry"/>
                </mxCell>
                <mxCell id="oKClUMGqIlvzCe3DZ8xL-4" value="" style="shape=tableRow;horizontal=0;startSize=0;swimlaneHead=0;swimlaneBody=0;fillColor=none;collapsible=0;dropTarget=0;points=[[0,0.5],[1,0.5]];portConstraint=eastwest;top=0;left=0;right=0;bottom=0;" parent="oKClUMGqIlvzCe3DZ8xL-0" vertex="1">
                    <mxGeometry y="30" width="200" height="30" as="geometry"/>
                </mxCell>
                <mxCell id="oKClUMGqIlvzCe3DZ8xL-5" value="" style="shape=partialRectangle;connectable=0;fillColor=none;top=0;left=0;bottom=0;right=0;editable=1;overflow=hidden;" parent="oKClUMGqIlvzCe3DZ8xL-4" vertex="1">
                    <mxGeometry width="30" height="30" as="geometry">
                        <mxRectangle width="30" height="30" as="alternateBounds"/>
                    </mxGeometry>
                </mxCell>
                <mxCell id="oKClUMGqIlvzCe3DZ8xL-6" value="content" style="shape=partialRectangle;connectable=0;fillColor=none;top=0;left=0;bottom=0;right=0;align=left;spacingLeft=6;overflow=hidden;" parent="oKClUMGqIlvzCe3DZ8xL-4" vertex="1">
                    <mxGeometry x="30" width="170" height="30" as="geometry">
                        <mxRectangle width="170" height="30" as="alternateBounds"/>
                    </mxGeometry>
                </mxCell>
                <mxCell id="oKClUMGqIlvzCe3DZ8xL-7" value="" style="shape=tableRow;horizontal=0;startSize=0;swimlaneHead=0;swimlaneBody=0;fillColor=none;collapsible=0;dropTarget=0;points=[[0,0.5],[1,0.5]];portConstraint=eastwest;top=0;left=0;right=0;bottom=0;" parent="oKClUMGqIlvzCe3DZ8xL-0" vertex="1">
                    <mxGeometry y="60" width="200" height="30" as="geometry"/>
                </mxCell>
                <mxCell id="oKClUMGqIlvzCe3DZ8xL-8" value="" style="shape=partialRectangle;connectable=0;fillColor=none;top=0;left=0;bottom=0;right=0;editable=1;overflow=hidden;" parent="oKClUMGqIlvzCe3DZ8xL-7" vertex="1">
                    <mxGeometry width="30" height="30" as="geometry">
                        <mxRectangle width="30" height="30" as="alternateBounds"/>
                    </mxGeometry>
                </mxCell>
                <mxCell id="oKClUMGqIlvzCe3DZ8xL-9" value="sentBy" style="shape=partialRectangle;connectable=0;fillColor=none;top=0;left=0;bottom=0;right=0;align=left;spacingLeft=6;overflow=hidden;" parent="oKClUMGqIlvzCe3DZ8xL-7" vertex="1">
                    <mxGeometry x="30" width="170" height="30" as="geometry">
                        <mxRectangle width="170" height="30" as="alternateBounds"/>
                    </mxGeometry>
                </mxCell>
                <mxCell id="0m8lBAI-7psho9oEgYHf-0" value="" style="shape=tableRow;horizontal=0;startSize=0;swimlaneHead=0;swimlaneBody=0;fillColor=none;collapsible=0;dropTarget=0;points=[[0,0.5],[1,0.5]];portConstraint=eastwest;top=0;left=0;right=0;bottom=0;" parent="oKClUMGqIlvzCe3DZ8xL-0" vertex="1">
                    <mxGeometry y="90" width="200" height="30" as="geometry"/>
                </mxCell>
                <mxCell id="0m8lBAI-7psho9oEgYHf-1" value="" style="shape=partialRectangle;connectable=0;fillColor=none;top=0;left=0;bottom=0;right=0;editable=1;overflow=hidden;" parent="0m8lBAI-7psho9oEgYHf-0" vertex="1">
                    <mxGeometry width="30" height="30" as="geometry">
                        <mxRectangle width="30" height="30" as="alternateBounds"/>
                    </mxGeometry>
                </mxCell>
                <mxCell id="0m8lBAI-7psho9oEgYHf-2" value="status" style="shape=partialRectangle;connectable=0;fillColor=none;top=0;left=0;bottom=0;right=0;align=left;spacingLeft=6;overflow=hidden;" parent="0m8lBAI-7psho9oEgYHf-0" vertex="1">
                    <mxGeometry x="30" width="170" height="30" as="geometry">
                        <mxRectangle width="170" height="30" as="alternateBounds"/>
                    </mxGeometry>
                </mxCell>
                <mxCell id="2JLFQluS4bJQlS3A3vkc-0" value="" style="shape=tableRow;horizontal=0;startSize=0;swimlaneHead=0;swimlaneBody=0;fillColor=none;collapsible=0;dropTarget=0;points=[[0,0.5],[1,0.5]];portConstraint=eastwest;top=0;left=0;right=0;bottom=0;html=0;" parent="oKClUMGqIlvzCe3DZ8xL-0" vertex="1">
                    <mxGeometry y="120" width="200" height="30" as="geometry"/>
                </mxCell>
                <mxCell id="2JLFQluS4bJQlS3A3vkc-1" value="" style="shape=partialRectangle;connectable=0;fillColor=none;top=0;left=0;bottom=0;right=0;editable=1;overflow=hidden;html=0;" parent="2JLFQluS4bJQlS3A3vkc-0" vertex="1">
                    <mxGeometry width="30" height="30" as="geometry">
                        <mxRectangle width="30" height="30" as="alternateBounds"/>
                    </mxGeometry>
                </mxCell>
                <mxCell id="2JLFQluS4bJQlS3A3vkc-2" value="roomUuid" style="shape=partialRectangle;connectable=0;fillColor=none;top=0;left=0;bottom=0;right=0;align=left;spacingLeft=6;overflow=hidden;html=0;" parent="2JLFQluS4bJQlS3A3vkc-0" vertex="1">
                    <mxGeometry x="30" width="170" height="30" as="geometry">
                        <mxRectangle width="170" height="30" as="alternateBounds"/>
                    </mxGeometry>
                </mxCell>
                <mxCell id="0m8lBAI-7psho9oEgYHf-3" value="" style="endArrow=none;html=1;rounded=0;exitX=0.5;exitY=1;exitDx=0;exitDy=0;entryX=0.5;entryY=0;entryDx=0;entryDy=0;" parent="f1Qb1_tnKNFnAcXF_MoP-1" source="f1Qb1_tnKNFnAcXF_MoP-15" target="oKClUMGqIlvzCe3DZ8xL-0" edge="1">
                    <mxGeometry relative="1" as="geometry">
                        <mxPoint x="560" y="190" as="sourcePoint"/>
                        <mxPoint x="720" y="190" as="targetPoint"/>
                    </mxGeometry>
                </mxCell>
                <mxCell id="0m8lBAI-7psho9oEgYHf-4" value="room_tbl" style="shape=table;startSize=30;container=1;collapsible=1;childLayout=tableLayout;fixedRows=1;rowLines=0;fontStyle=1;align=center;resizeLast=1;" parent="f1Qb1_tnKNFnAcXF_MoP-1" vertex="1">
                    <mxGeometry x="510" y="240" width="210" height="150" as="geometry"/>
                </mxCell>
                <mxCell id="0m8lBAI-7psho9oEgYHf-8" value="" style="shape=tableRow;horizontal=0;startSize=0;swimlaneHead=0;swimlaneBody=0;fillColor=none;collapsible=0;dropTarget=0;points=[[0,0.5],[1,0.5]];portConstraint=eastwest;top=0;left=0;right=0;bottom=0;" parent="0m8lBAI-7psho9oEgYHf-4" vertex="1">
                    <mxGeometry y="30" width="210" height="30" as="geometry"/>
                </mxCell>
                <mxCell id="0m8lBAI-7psho9oEgYHf-9" value="" style="shape=partialRectangle;connectable=0;fillColor=none;top=0;left=0;bottom=0;right=0;editable=1;overflow=hidden;" parent="0m8lBAI-7psho9oEgYHf-8" vertex="1">
                    <mxGeometry width="30" height="30" as="geometry">
                        <mxRectangle width="30" height="30" as="alternateBounds"/>
                    </mxGeometry>
                </mxCell>
                <mxCell id="0m8lBAI-7psho9oEgYHf-10" value="name" style="shape=partialRectangle;connectable=0;fillColor=none;top=0;left=0;bottom=0;right=0;align=left;spacingLeft=6;overflow=hidden;" parent="0m8lBAI-7psho9oEgYHf-8" vertex="1">
                    <mxGeometry x="30" width="180" height="30" as="geometry">
                        <mxRectangle width="180" height="30" as="alternateBounds"/>
                    </mxGeometry>
                </mxCell>
                <mxCell id="BN9UF_b1t7rnP222Tm-I-0" value="" style="shape=tableRow;horizontal=0;startSize=0;swimlaneHead=0;swimlaneBody=0;fillColor=none;collapsible=0;dropTarget=0;points=[[0,0.5],[1,0.5]];portConstraint=eastwest;top=0;left=0;right=0;bottom=0;" parent="0m8lBAI-7psho9oEgYHf-4" vertex="1">
                    <mxGeometry y="60" width="210" height="30" as="geometry"/>
                </mxCell>
                <mxCell id="BN9UF_b1t7rnP222Tm-I-1" value="" style="shape=partialRectangle;connectable=0;fillColor=none;top=0;left=0;bottom=0;right=0;editable=1;overflow=hidden;" parent="BN9UF_b1t7rnP222Tm-I-0" vertex="1">
                    <mxGeometry width="30" height="30" as="geometry">
                        <mxRectangle width="30" height="30" as="alternateBounds"/>
                    </mxGeometry>
                </mxCell>
                <mxCell id="BN9UF_b1t7rnP222Tm-I-2" value="img_url" style="shape=partialRectangle;connectable=0;fillColor=none;top=0;left=0;bottom=0;right=0;align=left;spacingLeft=6;overflow=hidden;" parent="BN9UF_b1t7rnP222Tm-I-0" vertex="1">
                    <mxGeometry x="30" width="180" height="30" as="geometry">
                        <mxRectangle width="180" height="30" as="alternateBounds"/>
                    </mxGeometry>
                </mxCell>
                <mxCell id="0m8lBAI-7psho9oEgYHf-11" value="" style="shape=tableRow;horizontal=0;startSize=0;swimlaneHead=0;swimlaneBody=0;fillColor=none;collapsible=0;dropTarget=0;points=[[0,0.5],[1,0.5]];portConstraint=eastwest;top=0;left=0;right=0;bottom=0;" parent="0m8lBAI-7psho9oEgYHf-4" vertex="1">
                    <mxGeometry y="90" width="210" height="30" as="geometry"/>
                </mxCell>
                <mxCell id="0m8lBAI-7psho9oEgYHf-12" value="" style="shape=partialRectangle;connectable=0;fillColor=none;top=0;left=0;bottom=0;right=0;editable=1;overflow=hidden;" parent="0m8lBAI-7psho9oEgYHf-11" vertex="1">
                    <mxGeometry width="30" height="30" as="geometry">
                        <mxRectangle width="30" height="30" as="alternateBounds"/>
                    </mxGeometry>
                </mxCell>
                <mxCell id="0m8lBAI-7psho9oEgYHf-13" value="lastMessage" style="shape=partialRectangle;connectable=0;fillColor=none;top=0;left=0;bottom=0;right=0;align=left;spacingLeft=6;overflow=hidden;" parent="0m8lBAI-7psho9oEgYHf-11" vertex="1">
                    <mxGeometry x="30" width="180" height="30" as="geometry">
                        <mxRectangle width="180" height="30" as="alternateBounds"/>
                    </mxGeometry>
                </mxCell>
                <mxCell id="a5RC5qMp0OTg3MoxOY89-30" value="" style="shape=tableRow;horizontal=0;startSize=0;swimlaneHead=0;swimlaneBody=0;fillColor=none;collapsible=0;dropTarget=0;points=[[0,0.5],[1,0.5]];portConstraint=eastwest;top=0;left=0;right=0;bottom=0;" parent="0m8lBAI-7psho9oEgYHf-4" vertex="1">
                    <mxGeometry y="120" width="210" height="30" as="geometry"/>
                </mxCell>
                <mxCell id="a5RC5qMp0OTg3MoxOY89-31" value="" style="shape=partialRectangle;connectable=0;fillColor=none;top=0;left=0;bottom=0;right=0;editable=1;overflow=hidden;" parent="a5RC5qMp0OTg3MoxOY89-30" vertex="1">
                    <mxGeometry width="30" height="30" as="geometry">
                        <mxRectangle width="30" height="30" as="alternateBounds"/>
                    </mxGeometry>
                </mxCell>
                <mxCell id="a5RC5qMp0OTg3MoxOY89-32" value="List&lt;users with &#10;unread messages&gt;" style="shape=partialRectangle;connectable=0;fillColor=none;top=0;left=0;bottom=0;right=0;align=left;spacingLeft=6;overflow=hidden;" parent="a5RC5qMp0OTg3MoxOY89-30" vertex="1">
                    <mxGeometry x="30" width="180" height="30" as="geometry">
                        <mxRectangle width="180" height="30" as="alternateBounds"/>
                    </mxGeometry>
                </mxCell>
                <mxCell id="Zl94qRKd2nbnmell1k2q-0" value="" style="endArrow=none;html=1;rounded=0;exitX=0.5;exitY=1;exitDx=0;exitDy=0;entryX=0.5;entryY=0;entryDx=0;entryDy=0;" parent="f1Qb1_tnKNFnAcXF_MoP-1" source="f1Qb1_tnKNFnAcXF_MoP-15" target="0m8lBAI-7psho9oEgYHf-4" edge="1">
                    <mxGeometry relative="1" as="geometry">
                        <mxPoint x="620" y="490" as="sourcePoint"/>
                        <mxPoint x="780" y="490" as="targetPoint"/>
                    </mxGeometry>
                </mxCell>
                <mxCell id="a5RC5qMp0OTg3MoxOY89-0" value="usr_room_tbl" style="shape=table;startSize=30;container=1;collapsible=1;childLayout=tableLayout;fixedRows=1;rowLines=0;fontStyle=1;align=center;resizeLast=1;" parent="f1Qb1_tnKNFnAcXF_MoP-1" vertex="1">
                    <mxGeometry x="160" y="440" width="180" height="120" as="geometry"/>
                </mxCell>
                <mxCell id="a5RC5qMp0OTg3MoxOY89-1" value="" style="shape=tableRow;horizontal=0;startSize=0;swimlaneHead=0;swimlaneBody=0;fillColor=none;collapsible=0;dropTarget=0;points=[[0,0.5],[1,0.5]];portConstraint=eastwest;top=0;left=0;right=0;bottom=1;" parent="a5RC5qMp0OTg3MoxOY89-0" vertex="1">
                    <mxGeometry y="30" width="180" height="30" as="geometry"/>
                </mxCell>
                <mxCell id="a5RC5qMp0OTg3MoxOY89-2" value="PK" style="shape=partialRectangle;connectable=0;fillColor=none;top=0;left=0;bottom=0;right=0;fontStyle=1;overflow=hidden;" parent="a5RC5qMp0OTg3MoxOY89-1" vertex="1">
                    <mxGeometry width="30" height="30" as="geometry">
                        <mxRectangle width="30" height="30" as="alternateBounds"/>
                    </mxGeometry>
                </mxCell>
                <mxCell id="a5RC5qMp0OTg3MoxOY89-3" value="id" style="shape=partialRectangle;connectable=0;fillColor=none;top=0;left=0;bottom=0;right=0;align=left;spacingLeft=6;fontStyle=5;overflow=hidden;" parent="a5RC5qMp0OTg3MoxOY89-1" vertex="1">
                    <mxGeometry x="30" width="150" height="30" as="geometry">
                        <mxRectangle width="150" height="30" as="alternateBounds"/>
                    </mxGeometry>
                </mxCell>
                <mxCell id="a5RC5qMp0OTg3MoxOY89-4" value="" style="shape=tableRow;horizontal=0;startSize=0;swimlaneHead=0;swimlaneBody=0;fillColor=none;collapsible=0;dropTarget=0;points=[[0,0.5],[1,0.5]];portConstraint=eastwest;top=0;left=0;right=0;bottom=0;" parent="a5RC5qMp0OTg3MoxOY89-0" vertex="1">
                    <mxGeometry y="60" width="180" height="30" as="geometry"/>
                </mxCell>
                <mxCell id="a5RC5qMp0OTg3MoxOY89-5" value="" style="shape=partialRectangle;connectable=0;fillColor=none;top=0;left=0;bottom=0;right=0;editable=1;overflow=hidden;" parent="a5RC5qMp0OTg3MoxOY89-4" vertex="1">
                    <mxGeometry width="30" height="30" as="geometry">
                        <mxRectangle width="30" height="30" as="alternateBounds"/>
                    </mxGeometry>
                </mxCell>
                <mxCell id="a5RC5qMp0OTg3MoxOY89-6" value="roomId" style="shape=partialRectangle;connectable=0;fillColor=none;top=0;left=0;bottom=0;right=0;align=left;spacingLeft=6;overflow=hidden;" parent="a5RC5qMp0OTg3MoxOY89-4" vertex="1">
                    <mxGeometry x="30" width="150" height="30" as="geometry">
                        <mxRectangle width="150" height="30" as="alternateBounds"/>
                    </mxGeometry>
                </mxCell>
                <mxCell id="a5RC5qMp0OTg3MoxOY89-7" value="" style="shape=tableRow;horizontal=0;startSize=0;swimlaneHead=0;swimlaneBody=0;fillColor=none;collapsible=0;dropTarget=0;points=[[0,0.5],[1,0.5]];portConstraint=eastwest;top=0;left=0;right=0;bottom=0;" parent="a5RC5qMp0OTg3MoxOY89-0" vertex="1">
                    <mxGeometry y="90" width="180" height="30" as="geometry"/>
                </mxCell>
                <mxCell id="a5RC5qMp0OTg3MoxOY89-8" value="" style="shape=partialRectangle;connectable=0;fillColor=none;top=0;left=0;bottom=0;right=0;editable=1;overflow=hidden;" parent="a5RC5qMp0OTg3MoxOY89-7" vertex="1">
                    <mxGeometry width="30" height="30" as="geometry">
                        <mxRectangle width="30" height="30" as="alternateBounds"/>
                    </mxGeometry>
                </mxCell>
                <mxCell id="a5RC5qMp0OTg3MoxOY89-9" value="userId" style="shape=partialRectangle;connectable=0;fillColor=none;top=0;left=0;bottom=0;right=0;align=left;spacingLeft=6;overflow=hidden;" parent="a5RC5qMp0OTg3MoxOY89-7" vertex="1">
                    <mxGeometry x="30" width="150" height="30" as="geometry">
                        <mxRectangle width="150" height="30" as="alternateBounds"/>
                    </mxGeometry>
                </mxCell>
            </root>
        </mxGraphModel>
    </diagram>
</mxfile>